<svg xmlns="http://www.w3.org/2000/svg" width="35" height="22.105" viewBox="0 0 35 22.105">
  <path id="lnr-envelope" d="M32.237,6H2.763A2.767,2.767,0,0,0,0,8.763V25.342a2.767,2.767,0,0,0,2.763,2.763H32.237A2.767,2.767,0,0,0,35,25.342V8.763A2.767,2.767,0,0,0,32.237,6Zm0,1.842a.926.926,0,0,1,.16.015L18.522,17.106a2.09,2.09,0,0,1-2.043,0L2.6,7.857a.909.909,0,0,1,.16-.015H32.239Zm0,18.421H2.763a.921.921,0,0,1-.921-.921V9.563l13.615,9.076a3.929,3.929,0,0,0,4.086,0L33.158,9.563V25.342A.921.921,0,0,1,32.237,26.263Z" transform="translate(0 -6)" fill="#1e68a9"/>
</svg>
