<svg xmlns="http://www.w3.org/2000/svg" width="61.751" height="65" viewBox="0 0 61.751 65">
  <g id="lnr-apartment" transform="translate(0 0.001)">
    <path id="Path_1" data-name="Path 1" d="M14,6h1V7H14Z" transform="translate(33.251 14.213)" fill="#1e68a9"/>
    <path id="Path_2" data-name="Path 2" d="M14,8h1V9H14Z" transform="translate(33.251 18.95)" fill="#1e68a9"/>
    <path id="Path_3" data-name="Path 3" d="M14,10h1v1H14Z" transform="translate(33.251 23.686)" fill="#1e68a9"/>
    <path id="Path_4" data-name="Path 4" d="M14,12h1v1H14Z" transform="translate(33.251 28.423)" fill="#1e68a9"/>
    <path id="Path_5" data-name="Path 5" d="M14,16h1v1H14Z" transform="translate(33.251 45)" fill="#1e68a9"/>
    <path id="Path_6" data-name="Path 6" d="M14,14h1v1H14Z" transform="translate(33.251 33.16)" fill="#1e68a9"/>
    <path id="Path_7" data-name="Path 7" d="M6,6H7V7H6Z" transform="translate(14.25 14.213)" fill="#1e68a9"/>
    <path id="Path_8" data-name="Path 8" d="M6,8H7V9H6Z" transform="translate(14.25 18.95)" fill="#1e68a9"/>
    <path id="Path_9" data-name="Path 9" d="M6,10H7v1H6Z" transform="translate(14.25 23.686)" fill="#1e68a9"/>
    <path id="Path_10" data-name="Path 10" d="M6,12H7v1H6Z" transform="translate(14.25 28.423)" fill="#1e68a9"/>
    <path id="Path_11" data-name="Path 11" d="M6,16H7v1H6Z" transform="translate(14.25 45)" fill="#1e68a9"/>
    <path id="Path_12" data-name="Path 12" d="M6,14H7v1H6Z" transform="translate(14.25 33.16)" fill="#1e68a9"/>
    <path id="Path_13" data-name="Path 13" d="M4,6H5V7H4Z" transform="translate(9.5 14.213)" fill="#1e68a9"/>
    <path id="Path_14" data-name="Path 14" d="M4,8H5V9H4Z" transform="translate(9.5 18.95)" fill="#1e68a9"/>
    <path id="Path_15" data-name="Path 15" d="M4,10H5v1H4Z" transform="translate(9.5 23.686)" fill="#1e68a9"/>
    <path id="Path_16" data-name="Path 16" d="M4,12H5v1H4Z" transform="translate(9.5 28.423)" fill="#1e68a9"/>
    <path id="Path_17" data-name="Path 17" d="M4,16H5v1H4Z" transform="translate(9.5 45)" fill="#1e68a9"/>
    <path id="Path_18" data-name="Path 18" d="M4,14H5v1H4Z" transform="translate(9.5 33.16)" fill="#1e68a9"/>
    <path id="Path_19" data-name="Path 19" d="M8,6H9V7H8Z" transform="translate(19 14.213)" fill="#1e68a9"/>
    <path id="Path_20" data-name="Path 20" d="M8,8H9V9H8Z" transform="translate(19 18.95)" fill="#1e68a9"/>
    <path id="Path_21" data-name="Path 21" d="M8,10H9v1H8Z" transform="translate(19 23.686)" fill="#1e68a9"/>
    <path id="Path_22" data-name="Path 22" d="M8,12H9v1H8Z" transform="translate(19 28.423)" fill="#1e68a9"/>
    <path id="Path_23" data-name="Path 23" d="M8,16H9v1H8Z" transform="translate(19 45)" fill="#1e68a9"/>
    <path id="Path_24" data-name="Path 24" d="M8,14H9v1H8Z" transform="translate(19 33.16)" fill="#1e68a9"/>
    <path id="Path_25" data-name="Path 25" d="M60.126,61.752H58.5V17.877a6.464,6.464,0,0,0-4.2-5.821L39,6.954V1.624A1.628,1.628,0,0,0,36.907.067L7.521,8.884a6.275,6.275,0,0,0-4.271,5.74V61.749H1.625a1.625,1.625,0,1,0,0,3.25h58.5a1.625,1.625,0,1,0,0-3.25ZM53.278,15.14a3.217,3.217,0,0,1,1.973,2.737V61.752H39V10.382ZM6.5,14.627A3.038,3.038,0,0,1,8.457,12L35.75,3.811V61.752H6.5Z" transform="translate(0 0)" fill="#1e68a9"/>
  </g>
</svg>
