<svg xmlns="http://www.w3.org/2000/svg" width="34.974" height="35" viewBox="0 0 34.974 35">
  <path id="lnr-phone-handset" d="M27.989,35a21.722,21.722,0,0,1-9.8-2.611,36.005,36.005,0,0,1-8.963-6.615A36.081,36.081,0,0,1,2.62,16.8,21.772,21.772,0,0,1,.013,7c0-2.009,1.872-3.95,2.676-4.69C3.845,1.244,5.665,0,6.988,0A3.986,3.986,0,0,1,9.415,1.354a23.141,23.141,0,0,1,2.42,2.7c.506.651,3.027,3.974,3.027,5.568,0,1.307-1.479,2.217-3.043,3.178a17.406,17.406,0,0,0-1.682,1.118c-.483.387-.569.591-.583.637,1.661,4.14,6.737,9.217,10.876,10.876.037-.012.241-.093.635-.583a17.625,17.625,0,0,0,1.118-1.682c.962-1.564,1.871-3.043,3.178-3.043,1.594,0,4.917,2.522,5.568,3.027a23.141,23.141,0,0,1,2.7,2.42A3.982,3.982,0,0,1,34.987,28c0,1.323-1.244,3.148-2.308,4.31C31.937,33.119,30,35,27.987,35ZM6.979,1.75A6.573,6.573,0,0,0,3.877,3.6C2.575,4.8,1.765,6.1,1.765,7c0,11.775,14.461,26.249,26.224,26.249.9,0,2.2-.814,3.4-2.123a6.609,6.609,0,0,0,1.848-3.117c-.056-.332-.976-1.626-3.495-3.565a13.679,13.679,0,0,0-4.371-2.571c-.031.009-.227.084-.625.588a18.879,18.879,0,0,0-1.073,1.62c-.98,1.594-1.906,3.1-3.251,3.1a1.7,1.7,0,0,1-.635-.124C15.2,25.221,9.764,19.79,7.926,15.2c-.22-.551-.255-1.416.829-2.4A15.148,15.148,0,0,1,10.9,11.308a17.839,17.839,0,0,0,1.62-1.073c.5-.4.579-.593.588-.625a13.717,13.717,0,0,0-2.571-4.371C8.6,2.721,7.31,1.8,6.978,1.745Z" transform="translate(-0.013)" fill="#1e68a9"/>
</svg>
