<svg xmlns="http://www.w3.org/2000/svg" width="65" height="58.708" viewBox="0 0 65 58.708">
  <path id="lnr-home" d="M64.585,35.18,35.889,3.465A4.526,4.526,0,0,0,32.5,1.937h0a4.536,4.536,0,0,0-3.387,1.528L.419,35.18a1.623,1.623,0,1,0,2.408,2.178l6.92-7.648V55.77a4.881,4.881,0,0,0,4.875,4.875H50.375A4.881,4.881,0,0,0,55.25,55.77V29.71l6.92,7.648a1.625,1.625,0,1,0,2.408-2.181ZM39,57.4H26V42.769a1.626,1.626,0,0,1,1.625-1.625h9.751A1.626,1.626,0,0,1,39,42.769ZM52,55.77A1.626,1.626,0,0,1,50.378,57.4H42.253V42.769a4.881,4.881,0,0,0-4.875-4.875H27.627a4.881,4.881,0,0,0-4.875,4.875V57.4H14.626A1.626,1.626,0,0,1,13,55.77V26.119L31.527,5.642a1.266,1.266,0,0,1,1.95,0L52,26.119Z" transform="translate(0 -1.937)" fill="#1e68a9"/>
</svg>
