<?xml version="1.0" encoding="utf-8"?>
<!-- Generator: Adobe Illustrator 18.0.0, SVG Export Plug-In . SVG Version: 6.00 Build 0)  -->
<!DOCTYPE svg PUBLIC "-//W3C//DTD SVG 1.1//EN" "http://www.w3.org/Graphics/SVG/1.1/DTD/svg11.dtd">
<svg version="1.1" id="Слой_1" xmlns="http://www.w3.org/2000/svg" xmlns:xlink="http://www.w3.org/1999/xlink" x="0px" y="0px"
	 viewBox="0 93.1 1240.1 230.9" enable-background="new 0 93.1 1240.1 230.9" xml:space="preserve">
<g enable-background="new    ">
	<path fill="#1E68A9" d="M149.1,106.8H195L122.2,321H72.7L0,106.8h45.8l40.3,127.4c2.2,7.5,4.6,16.3,7,26.3c2.4,10,3.9,17,4.5,20.9
		c1.1-9,4.7-24.7,11-47.2L149.1,106.8z"/>
</g>
<g enable-background="new    ">
	<path fill="#FF7E03" d="M304.5,321h-45.4V144.6H201v-37.8h161.7v37.8h-58.2V321z"/>
	<path fill="#FF7E03" d="M466.3,323.9c-26.4,0-47-7.3-61.8-21.8c-14.8-14.5-22.3-35.2-22.3-61.8c0-27.4,6.9-48.7,20.6-63.6
		c13.7-15,32.7-22.5,56.9-22.5c23.1,0,41.2,6.6,54.1,19.8s19.3,31.4,19.3,54.6v21.7H427.4c0.5,12.7,4.2,22.6,11.3,29.7
		c7,7.1,16.9,10.7,29.6,10.7c9.9,0,19.2-1,28-3.1s18-5.3,27.5-9.8v34.6c-7.8,3.9-16.2,6.8-25,8.7C489.9,323,479.1,323.9,466.3,323.9
		z M460,185.9c-9.5,0-16.9,3-22.3,9c-5.4,6-8.4,14.5-9.2,25.6h62.7c-0.2-11-3.1-19.6-8.6-25.6S469.4,185.9,460,185.9z"/>
	<path fill="#FF7E03" d="M720.6,321h-44.7v-95.7c0-11.8-2.1-20.7-6.3-26.6c-4.2-5.9-10.9-8.9-20.1-8.9c-12.5,0-21.5,4.2-27.1,12.5
		s-8.3,22.2-8.3,41.5V321h-44.7V157.2h34.1l6,20.9h2.5c5-7.9,11.8-13.9,20.6-17.9c8.7-4.1,18.7-6.1,29.8-6.1
		c19,0,33.5,5.2,43.4,15.5c9.9,10.3,14.8,25.2,14.8,44.6V321z"/>
	<path fill="#FF7E03" d="M818.4,323.9c-19.2,0-34.4-7.5-45.3-22.4s-16.5-35.6-16.5-62.1c0-26.9,5.6-47.8,16.8-62.8
		c11.2-15,26.6-22.5,46.2-22.5c20.6,0,36.3,8,47.2,24h1.5c-2.2-12.2-3.4-23.1-3.4-32.7V93.1h44.8V321h-34.3l-8.6-21.2h-1.9
		C854.7,315.9,839.2,323.9,818.4,323.9z M834.1,288.3c11.4,0,19.8-3.3,25.1-10c5.3-6.6,8.2-17.9,8.7-33.8v-4.8
		c0-17.6-2.7-30.2-8.1-37.8s-14.2-11.4-26.4-11.4c-10,0-17.7,4.2-23.2,12.7c-5.5,8.4-8.3,20.7-8.3,36.8s2.8,28.2,8.3,36.3
		S823.7,288.3,834.1,288.3z"/>
	<path fill="#FF7E03" d="M1030.5,323.9c-26.4,0-47-7.3-61.8-21.8c-14.8-14.5-22.3-35.2-22.3-61.8c0-27.4,6.9-48.7,20.6-63.6
		c13.7-15,32.7-22.5,56.9-22.5c23.1,0,41.2,6.6,54.1,19.8s19.3,31.4,19.3,54.6v21.7H991.7c0.5,12.7,4.2,22.6,11.3,29.7
		c7,7.1,16.9,10.7,29.6,10.7c9.9,0,19.2-1,28-3.1s18-5.3,27.5-9.8v34.6c-7.8,3.9-16.2,6.8-25,8.7
		C1054.1,323,1043.3,323.9,1030.5,323.9z M1024.2,185.9c-9.5,0-16.9,3-22.3,9c-5.4,6-8.4,14.5-9.2,25.6h62.7
		c-0.2-11-3.1-19.6-8.6-25.6S1033.7,185.9,1024.2,185.9z"/>
	<path fill="#FF7E03" d="M1225,154.2c6.1,0,11.1,0.4,15.1,1.3l-3.4,41.9c-3.6-1-8-1.5-13.2-1.5c-14.3,0-25.4,3.7-33.3,11
		c-8,7.3-11.9,17.6-11.9,30.8V321h-44.7V157.2h33.8l6.6,27.5h2.2c5.1-9.2,11.9-16.6,20.6-22.2C1205.5,157,1214.9,154.2,1225,154.2z"
		/>
</g>
</svg>
